<?xml version="1.0" standalone="no"?>
<!DOCTYPE svg PUBLIC "-//W3C//DTD SVG 1.1//EN" "http://www.w3.org/Graphics/SVG/1.1/DTD/svg11.dtd" >
<svg>
<metadata>
Created by FontForge 20090622 at Tue May  3 17:47:36 2016
 By deploy user
Copyright (c) 2012 by Fontfabric LLC. All rights reserved.
</metadata>
<defs>
<font id="SocialicoPlus" horiz-adv-x="796" >
  <font-face 
    font-family="Socialico Plus"
    font-weight="400"
    font-stretch="normal"
    units-per-em="1000"
    panose-1="0 0 0 0 0 0 0 0 0 0"
    ascent="750"
    descent="-250"
    x-height="699"
    cap-height="613"
    bbox="27.6 -4 886 707"
    underline-thickness="50"
    underline-position="-50"
    unicode-range="U+0020-U+007A"
  />
<missing-glyph 
 />
    <glyph glyph-name=".notdef" 
 />
    <glyph glyph-name=".null" horiz-adv-x="0" 
 />
    <glyph glyph-name="nonmarkingreturn" horiz-adv-x="333" 
 />
    <glyph glyph-name="space" unicode=" " 
d="M399 707q145 0 248 -102.5t103 -248.5t-102.5 -249t-248.5 -103t-249 103t-103 249q0 145 103 248t249 103z" />
    <glyph glyph-name="exclam" unicode="!" 
d="M168 343q-20 -17 -20 -42q0 -24 20 -42v84zM189 355v-107q10 -2 16 -2h5v110q-2 1 -5 1q-6 0 -16 -2zM231 350v-104h21v139q-13 -18 -17 -37zM273 405v-159h21v169q-10 -3 -21 -10zM315 419v-173h21v173q-2 0 -6.5 0.5t-6.5 0.5q-5 0 -8 -1zM347 416v-170h31v174
q-8 -11 -9 -13q-9 5 -22 9zM389 430v-184h199v1q30 1 45.5 18t15.5 42t-17 42.5t-42 17.5q-11 0 -24 -5q-5 40 -35 67t-72 27t-70 -26zM399 0q-146 0 -249 103t-103 248t103.5 248.5t248.5 103.5t248 -103t103 -249q0 -145 -103 -248t-248 -103z" />
    <glyph glyph-name="dollar" unicode="$" horiz-adv-x="795" 
d="M600 343v7q0 38 -21 61q-19 21 -53 21t-55 -22q-22 -21 -22 -62q0 -39 21 -60t57 -21q30 0 47 13q19 14 25 38l-28 3q-8 -18 -17 -24q-11 -8 -27 -8q-21 0 -34 14q-14 14 -15 40h122zM526 410q22 0 34 -15q10 -11 11 -30h-91q0 21 14 33t32 12zM417 270v109q0 28 -13 40
q-12 13 -37 13q-31 0 -51 -27q-5 13 -16 20t-30 7q-18 0 -29 -7q-11 -6 -21 -18v22h-24v-159h27v83q0 20 5 33q5 11 14 17q10 6 22 6q16 0 22 -9q7 -8 7 -27v-103h28v92q0 26 11 36q13 11 29 11q11 0 16 -4q7 -4 10 -12q3 -6 3 -23v-100h27zM398 701q146 0 248.5 -102.5
t102.5 -248.5t-102.5 -249t-248.5 -103t-248.5 103t-102.5 249t102.5 248.5t248.5 102.5z" />
    <glyph glyph-name="ampersand" unicode="&#x26;" horiz-adv-x="795" 
d="M498 280q26 22 38.5 62t8.5 79q-5 41 -38.5 73t-78.5 37q-71 8 -124 -31.5t-54 -105.5q0 -64 51 -85q9 9 10 18t-3 16t-9 17.5t-6 19.5q-6 60 49 98.5t113 3.5q27 -16 34.5 -59.5t-8 -83t-47.5 -46.5q-25 -4 -37 8q-19 11 -1.5 59t8.5 69q-12 27 -38 14t-30 -40
q-2 -10 2 -27.5t4 -23.5q0 -21 -13.5 -66.5t-15.5 -58.5q-7 -36 -1 -60h-1h25q18 31 37 111q3 2 5 0t4 -5.5t3 -4.5q25 -16 58.5 -11t54.5 23zM398 701q146 0 248.5 -102.5t102.5 -248.5t-102.5 -249t-248.5 -103t-248.5 103t-102.5 249t102.5 248.5t248.5 102.5z" />
    <glyph glyph-name="parenleft" unicode="(" horiz-adv-x="795" 
d="M364 335h-34l68 -68l68 68h-34v103h-68v-103zM398 523q-71 0 -121 -50t-50 -121q0 -70 50.5 -120.5t120.5 -50.5t120.5 50.5t50.5 120.5q0 71 -50 121t-121 50zM398 1q-146 0 -248.5 102.5t-102.5 248.5t103 249t248 103t248 -103t103 -249t-102.5 -248.5t-248.5 -102.5z
M398 216q-57 0 -97 40t-40 96q0 57 40 97t97 40q56 0 96.5 -40t40.5 -97q0 -56 -40.5 -96t-96.5 -40z" />
    <glyph glyph-name="parenright" unicode=")" 
d="M271 485l-102 -112h75v-140q0 -7 5 -12t12 -5h171l-53 54h-81v103h75zM536 486h-171l53 -54h81v-103h-76l103 -112l102 112h-75v140q0 7 -5 12t-12 5zM398 0q-146 0 -248.5 103t-102.5 248t102.5 248t248.5 103t249 -103t103 -248t-103 -248t-249 -103z" />
    <glyph glyph-name="comma" unicode="," 
d="M226 397q-6 -14 1 -25q5 -12 21 -15l6 -1l81 10q1 8 9 17l-50 36l-15 6q-16 4 -31 -5q-15 -5 -22 -23zM310 491q-2 -13 6 -30l3 -6l50 -54l8 3l-11 66q-1 6 -7 18q-10 19 -25 24q-9 3 -13 -1q-11 -6 -11 -20zM417 371q-10 10 -26 10t-26 -10q-12 -12 -12 -26
q0 -17 12 -27q9 -11 26 -11q15 0 26 11q11 10 11 27q0 15 -11 26zM406 492l-1 -5l1 -23l5 -63q8 -4 17 -10l50 62q5 9 8 17l2 12q0 8 -4 20q-8 15 -26 18q-16 6 -32 -2q-17 -10 -20 -26zM508 424l-7 -2l-57 -48l-2 -2l1 -2l1 -4l69 8q7 1 19 5q21 10 26 25l1 5l-2 7
q-5 11 -19 13q-17 2 -30 -5zM565 286l2 11q0 15 -9 24q-5 10 -20 16l-6 1l-22 -1l-64 -5l-2 -7l-4 -9l59 -48q6 -8 16 -9q16 -6 31 2q15 7 19 25zM469 220q1 14 -7 29l-3 6l-15 18l-23 24l-8 -4l-9 -4l8 -48l7 -19q9 -20 25 -25q9 0 13 3q8 2 12 20zM383 206v22q-3 21 -5 61
q-6 1 -18 7l-47 -56q-4 -4 -9 -16l-2 -13q0 -11 5 -19q6 -14 24 -19q14 -4 31 4q15 7 21 23v6zM296 281l4 3l17 14q3 3 10 9.5l11 10.5l-2 4l-3 11l-45 -8q-1 0 -17 -7q-18 -8 -23 -23l-1 -5l1 -6q4 -7 18 -9q14 -1 30 6zM398 -3q-146 0 -248.5 102.5t-102.5 248.5t103 249
t248 103q146 0 249 -103t103 -249q0 -145 -103 -248t-249 -103z" />
    <glyph glyph-name="hyphen" unicode="-" 
d="M545 379q11 14 6.5 23.5t-22.5 9.5h-76l-37 77q-8 17 -18 17t-18 -17l-36 -77h-77q-18 0 -22.5 -9.5t7.5 -23.5h1l58 -71l-30 -86q-5 -17 2 -23.5t23 1.5l92 46l92 -46q16 -8 23.5 -1.5t1.5 23.5l-29 86l58 71h1zM398 702q146 0 249 -103t103 -248q0 -146 -103 -249
t-249 -103t-248.5 103t-102.5 249q0 145 102.5 248t248.5 103z" />
    <glyph glyph-name="period" unicode="." 
d="M352 320q-10 -1 -17 -9.5t-6 -18.5t8.5 -17t17.5 -5q11 2 17.5 10t5.5 18v1v84l65 12v-68q-4 2 -12 2q-11 -2 -17.5 -10t-5.5 -18t8.5 -16.5t17.5 -5.5t17 9.5t6 18.5v1v123v0l-93 -16v-97q-4 2 -12 2zM398 511q-66 0 -113.5 -47t-47.5 -114q0 -66 47.5 -113t113.5 -47
q67 0 114 47t47 113q0 67 -47 114t-114 47zM398 -1q-146 0 -248.5 102.5t-102.5 248.5t103 249t248 103q146 0 249 -103t103 -249q0 -145 -103 -248t-249 -103zM398 222q-53 0 -90.5 37.5t-37.5 90.5t37.5 91t90.5 38t91 -38t38 -91t-38 -90.5t-91 -37.5z" />
    <glyph glyph-name="slash" unicode="/" 
d="M585 379v100q0 1 -1 4l-198 -210l-31 52q5 13 5 27q0 31 -21.5 52.5t-52.5 21.5t-52.5 -21.5t-21.5 -52.5t21.5 -53t52.5 -22q12 0 25 5l72 -66zM398 701q146 0 249 -103t103 -248q0 -146 -103 -249t-249 -103t-248.5 103t-102.5 249t102.5 248.5t248.5 102.5z" />
    <glyph glyph-name="zero" unicode="0" 
d="M253 352l-31 -107q32 12 57 12q29 0 65 -21q21 69 32 110q-2 1 -6 4t-6 4q-25 12 -48 12h-6q-21 -1 -48 -10q-3 -2 -9 -4zM294 497l-30 -107q32 13 59 13q31 0 62 -21l32 109q-25 14 -37 17t-27 3q-25 0 -59 -14zM515 450q-37 0 -69 21l-32 -109q32 -21 68 -21
q29 0 60 14v1h2l30 106q-30 -12 -59 -12zM502 212l30 103q-30 -9 -58 -9q-43 0 -70 21l-31 -108q33 -22 64 -22t65 15zM398 2q-145 0 -248 103t-103 249t102.5 248.5t248.5 102.5t249 -103t103 -248q0 -146 -103 -249t-249 -103z" />
    <glyph glyph-name="one" unicode="1" 
d="M233 403v-99h116v-115h99v115h116v99h-116v116h-99v-116h-116zM399 2q-146 0 -249 103t-103 249t103 248.5t249 102.5q145 0 248 -102.5t103 -248.5t-103 -249t-248 -103z" />
    <glyph glyph-name="two" unicode="2" 
d="M281 418q-25 0 -42.5 -17.5t-17.5 -42.5t17.5 -42.5t42.5 -17.5q22 0 39 14l121 -61v-3q0 -25 17.5 -42.5t42.5 -17.5t42.5 17.5t17.5 42.5t-17.5 42.5t-42.5 17.5q-20 0 -39 -14l-121 60v4v3l121 61q17 -14 39 -14q25 0 42.5 17.5t17.5 42.5t-17.5 42t-42.5 17
t-42.5 -17t-17.5 -42v-4l-121 -61q-18 15 -39 15zM402 701q145 -2 246.5 -104t101.5 -247q0 -146 -103 -248.5t-248 -102.5q-146 0 -249 103t-103 248t102 247t246 104h7z" />
    <glyph glyph-name="three" unicode="3" horiz-adv-x="795" 
d="M205 444q-15 -47 24.5 -111.5t93 -108t81.5 -43.5q20 0 55.5 27t69.5 65.5t53.5 86.5t8.5 84q-24 78 -100 78q-30 0 -51.5 -16t-31.5 -32l-10 -17l-10 17q-9 16 -30.5 32t-51.5 16q-34 0 -61.5 -19t-39.5 -59zM398 0q-146 0 -248.5 103t-102.5 248q0 146 103 249t248 103
t248 -103t103 -249q0 -145 -102.5 -248t-248.5 -103z" />
    <glyph glyph-name="four" unicode="4" horiz-adv-x="795" 
d="M321 504q-43 -22 -68 -62.5t-25 -88.5q0 -23 6 -44q3 3 75.5 68.5t75.5 68.5q-2 1 -32 28.5t-32 29.5zM402 700q144 -2 245.5 -104t101.5 -247t-102.5 -248t-248.5 -103t-248.5 103t-102.5 248t101.5 247t245.5 104h8zM398 523q-29 0 -59 -11q2 -2 64 -58.5t65 -59.5v114
q-33 15 -70 15zM486 498v-201h73q9 27 9 56q0 44 -22 83t-60 62zM414 184q44 4 81 29.5t56 65.5h-223v-81q28 -13 54 -14h32zM311 208v146q-42 -35 -71 -64q22 -53 71 -82z" />
    <glyph glyph-name="five" unicode="5" 
d="M202 327v-127l110 33v-45h161l-47 142h77q40 0 68 28t28 68t-28 68t-68 28q-36 0 -63 -23.5t-32 -58.5h-3q-5 35 -32 58.5t-63 23.5q-40 0 -67.5 -28t-27.5 -68q0 -39 27.5 -67t66.5 -29h3v-32zM337 426q0 -11 -8 -19t-19 -8t-19 8t-8 19t8 19t19 8t19 -8t8 -19zM505 399
q-11 0 -19 8t-8 19t8 19t19 8t19 -8t8 -19t-8 -19t-19 -8zM398 2q-146 0 -248.5 103t-102.5 248q0 146 103 249t248 103q146 0 249 -103t103 -249t-103 -248.5t-249 -102.5z" />
    <glyph glyph-name="six" unicode="6" 
d="M301 495q-60 0 -102 -42.5t-42 -102.5q0 -59 42 -101.5t102 -42.5q68 0 111 53l-18 43q-30 -56 -93 -56q-43 0 -74 30.5t-31 73.5q0 44 31 74.5t74 30.5q32 0 58.5 -17t37.5 -45l46 -105l5 -12q30 -68 96 -68q42 0 69.5 23.5t27.5 60.5q0 34 -17 51t-57 31
q-4 1 -14.5 4.5t-14.5 5l-11.5 4.5t-10.5 5.5t-6.5 6.5t-5 9t-1.5 11q0 16 11 26.5t28 10.5q24 0 41 -23l31 16q-24 42 -70 42q-36 0 -57 -20t-21 -53q0 -32 20 -49.5t66 -32.5q19 -6 27.5 -10t15.5 -12.5t7 -21.5q0 -21 -17 -34.5t-43 -12.5q-25 1 -37.5 13t-23.5 37
q-45 105 -47 110q-18 42 -53 65.5t-80 23.5zM399 -1q-146 0 -249 103t-103 248q0 146 103.5 249t248.5 103t248 -103t103 -249t-103 -248.5t-248 -102.5z" />
    <glyph glyph-name="seven" unicode="7" 
d="M401 446q-22 0 -37 -15t-15 -36q0 -22 15 -37t37 -15q21 0 36 15t15 37q0 21 -15 36t-36 15zM401 519q-52 0 -88.5 -36.5t-36.5 -87.5q0 -45 28.5 -79t71.5 -43l25 -99l25 99q43 9 71 43.5t28 78.5q0 51 -36.5 87.5t-87.5 36.5zM399 -4q-146 0 -249 103t-103 248
t103.5 248.5t248.5 103.5t248 -103t103 -249q0 -145 -103 -248t-248 -103zM401 302q-39 0 -66 27t-27 66q0 38 27 65.5t66 27.5q38 0 65.5 -27.5t27.5 -65.5q0 -39 -27.5 -66t-65.5 -27z" />
    <glyph glyph-name="eight" unicode="8" 
d="M398 184q120 5 138 127q5 37 -3 94q1 -7 -2 -15t-7 -13l-3 -5q-3 30 -32 66.5t-56 58.5l-27 22q-1 -13 -19 -31l-45 -43t-41 -45q-13 -18 -18.5 -40.5t-6.5 -37t-3 -15.5q-3 -1 -6.5 0.5t-5.5 3.5l-2 2q33 -123 139 -129zM399 703q145 0 248 -102.5t103 -248.5
t-102.5 -249t-248.5 -103t-249 103t-103 249q0 145 103 248t249 103z" />
    <glyph glyph-name="nine" unicode="9" 
d="M188 333q-2 -29 17.5 -47t52.5 -15q10 2 15 5q4 2 10 7t8 6q-13 -56 18 -56h23q2 12 5 33.5t4 26.5q1 6 5 27t5 33q2 29 -13 45.5t-43 18.5q-51 4 -84 -29q-22 -25 -23 -55zM250 313q-12 11 -8.5 32t15.5 30q5 5 15 6q14 0 19 -4q11 -9 8 -31t-15 -31q-16 -12 -34 -2z
M365 316q-4 -24 1 -32q8 -10 44 -8q7 38 14 92q5 23 0 30q-6 11 -45 11v-1q-2 -11 -7 -43t-7 -49zM408 468q-31 -10 -26 -31q3 -11 14.5 -14.5t21.5 1.5q24 9 17 31q-3 10 -18 13h-9zM437 302q-1 -18 11 -23t36 -4q2 10 5.5 32t5.5 33l9 -15.5l9 -15.5q14 -24 21 -29
q14 -10 34.5 -4t22.5 22q-13 3 -20.5 9.5t-16.5 23.5t-10 19q5 6 32.5 32l32.5 31q-7 0 -19 0.5t-21 0.5t-16 -3q-5 -2 -15 -12q-5 -4 -27 -29q-6 -8 -14 -14q1 11 6 38t6 39q1 19 -10.5 24t-37.5 4v-2q-2 -14 -8 -51.5l-11 -68.5t-5 -37zM399 -1q-146 0 -249 103t-103 249
q0 145 103 248t249 103q145 0 248 -103t103 -248q0 -146 -102.5 -249t-248.5 -103z" />
    <glyph glyph-name="colon" unicode=":" horiz-adv-x="798" 
d="M581 214q-39 -34 -103 -44t-111 21q-3 2 -7 9t-7.5 10.5t-8.5 -0.5q-36 -151 -70 -210h-48h2q-10 42 2 114q4 23 29.5 109.5t25.5 126.5q0 12 -7 45t-4 52q3 23 19.5 44t36.5 31.5t41 5t32 -31.5q12 -27 4.5 -64.5t-21 -66t-16.5 -61t19 -50.5q9 -9 30 -13.5t40 -1.5
q45 9 74 58t34 107t-12.5 114t-55.5 78q-57 35 -114 28.5t-102 -36.5t-71 -81t-20 -104q2 -17 11.5 -37t17 -32.5t6 -30t-18.5 -34.5q-52 21 -74.5 59.5t-22.5 101.5q1 125 102 200t235 59q85 -10 149 -70t73 -138q7 -74 -16.5 -150t-72.5 -117z" />
    <glyph glyph-name="question" unicode="?" 
d="M398 495q-70 0 -119 -34.5t-49 -83.5q0 -38 32.5 -69t84.5 -43q-13 -47 -30 -57q9 0 24 2t48.5 16t52.5 38q55 11 89.5 42t34.5 71q0 49 -49 83.5t-119 34.5zM499 370q0 38 -33 66t-83 34h4q56 0 96 -27.5t40 -66.5q0 -27 -20.5 -49.5t-53.5 -33.5q50 29 50 77zM398 0
q-146 0 -248.5 103t-102.5 248q0 146 103 249t248 103q146 0 249 -103.5t103 -248.5t-103 -248t-249 -103z" />
    <glyph glyph-name="A" unicode="A" horiz-adv-x="545" 
d="M67 465q18 32 49 51t66 19q20 1 51.5 -11.5t40.5 -12.5q7 0 44.5 14t62.5 11q64 0 102 -54q-4 0 -17.5 -11t-28.5 -38t-15 -58q0 -24 8 -44t18.5 -32t22 -20.5t19 -12t8.5 -3.5l-4 -13q-5 -12 -14 -31t-21 -36q-16 -23 -25 -34t-26 -22.5t-34 -11.5q-18 0 -45 11t-48 11
q-23 0 -49 -11.5t-43 -11.5q-39 -2 -86 71q-42 57 -55.5 134t19.5 146zM299 630q16 17 39 28.5t43 13.5q4 -50 -29 -90q-15 -19 -37.5 -30t-45.5 -9q-5 44 30 87z" />
    <glyph glyph-name="B" unicode="B" horiz-adv-x="626" 
d="M86 370q11 11 20 11q8 0 111 -44l29 -11q17 -7 17 -28q-2 -21 -18 -24l-42 -14q-94 -31 -102 -31q-13 0 -19 12q-5 15 -6 27q-6 73 10 102zM313 60q-5 -12 -17 -14q-19 -3 -64 13.5t-57 30.5q-6 5 -6 13q-1 4 1 9q3 5 75 91l21 25q9 12 32 7q18 -7 18 -25l-2 -44
q0 -102 -1 -106zM472 94q-10 -5 -23 1q-5 7 -63 101l-17 28q-11 16 3 31q12 17 29 9l42 -14q95 -30 101 -35q10 -6 8 -20q-3 -20 -32 -57t-48 -44zM423 327q-21 -5 -31 -9h1q-20 -4 -30 13q-9 19 1 31l26 35q61 84 64 86q11 6 23 0q17 -8 43 -46.5t28 -58.5v-2q1 -9 -8 -20
q-7 -4 -117 -29zM317 414q1 -35 -19 -42q-22 -4 -40 25l-53 81l-32.5 53l-32 52t-13.5 23q-4 9 5 22q15 14 73.5 30.5t78.5 11.5q13 -3 17 -16q0 -3 3.5 -53.5l7.5 -110t5 -76.5z" />
    <glyph glyph-name="C" unicode="C" horiz-adv-x="539" 
d="M245 581l-33 -33q-14 -16 -32 0q-16 17 0 33l68 68q9 9 21 9t20 -9l69 -68q14 -16 0 -33q-6 -5 -17 -5t-16 5l-33 33v-277q0 -10 -6.5 -17t-16.5 -7q-9 0 -16.5 7t-7.5 17v277zM329 508h117q17 0 29.5 -13t12.5 -30v-353q0 -18 -12 -30.5t-30 -12.5h-353q-19 0 -31 12
t-12 31v353q0 18 12.5 30.5t30.5 12.5h116v-47h-113v-345h346v345h-113v47z" />
    <glyph glyph-name="D" unicode="D" horiz-adv-x="678" 
d="M218 621l121 -100l-173 -107l173 -109l174 109l121 -96l-173 -114l-122 101l-121 -101l-173 114l121 96l-121 96zM339 521l122 100l173 -111l-121 -96zM340 284l121 -102l51 36v-40l-172 -103l-173 103v40l51 -36z" />
    <glyph glyph-name="E" unicode="E" horiz-adv-x="537" 
d="M51 606q0 14 14 14q2 0 33 -1t74 -1.5t73 -0.5q62 0 106.5 2.5t66 5.5t27.5 3q15 0 15 -17q0 -2 -3 -13.5t-3 -21.5q0 -8 2.5 -25t2.5 -24q0 -20 -20 -20q-10 0 -11 15q0 1 0.5 8t0 9t-2.5 8.5t-6.5 9t-11.5 7.5t-19 7t-27.5 5t-38.5 4t-51 1q-61 0 -75 -7.5t-14 -30.5
v-135q0 -11 4 -14.5t13 -3.5h123q50 0 54 47q0 13 3.5 16.5t11.5 3.5q17 0 16 -25q-5 -43 -5 -61q0 -12 2.5 -35t2.5 -31q0 -14 -13 -16t-17 12q-2 11 -4.5 17.5t-9 16t-19.5 14t-33 4.5h-111q-18 0 -18 -27v-143q0 -52 58 -52h23h28t27.5 0.5t30.5 2.5t26.5 5t26 8t20.5 12
q20 18 30 69q1 11 15 9q20 -3 19 -29q0 -8 -8.5 -35.5t-8.5 -39.5q0 -2 0.5 -11.5t0 -13t-1.5 -9.5t-4 -8.5t-8 -2.5q-1 0 -18 4t-56 4q-36 0 -173.5 -1t-153.5 -1q-17 0 -17 14q0 15 17 15q62 0 62 61v333q0 68 -50 73q-4 0 -7 1t-4.5 2t-2.5 3l-1.5 3t-1 3.5t-0.5 3.5z
" />
    <glyph glyph-name="F" unicode="F" horiz-adv-x="692" 
d="M648 379q0 -27 -19 -46q10 -34 -16 -63q11 -34 -17 -62q10 -32 -13.5 -60t-62.5 -28h-205q-15 0 -30.5 9t-17.5 9q0 -23 -21 -32q-6 -3 -149 -3q-12 0 -22 9t-11 22l-18 228q-1 15 9 25.5t25 10.5h155l21 -8q1 1 5 3.5t6 4.5q7 7 36 53t36 61l-2 68q0 21 21.5 33.5
t47 8.5t35.5 -22q27 -52 29 -97l-9 -68h127q27 0 43.5 -15.5t16.5 -40.5zM206 139q23 0 23 24t-23 24t-23 -24t23 -24zM404 577q-3 2 -11.5 3t-13.5 -1l2 -64q0 -8 -5 -20.5t-9 -20.5t-13.5 -23.5t-10.5 -17.5q-40 -58 -43 -61q-9 -9 -33 -27v-165q10 0 17 -3q4 -2 13 -7.5
t14 -7.5h209q16 0 26 10q10 7 10 19q0 14 -19 14v20q19 0 31 14q4 8 4 13q1 6 -2.5 9.5t-6 4t-10.5 1.5v21l24 7l5 4q10 11 7 21t-19 10v20q12 0 23 7.5t13 16t-3 14.5q-5 3 -7 3q-3 2 -8 2h-167l-10 12l17 91q2 16 -7 41q-6 18 -17 40z" />
    <glyph glyph-name="G" unicode="G" horiz-adv-x="762" 
d="M265 349q0 -11 14.5 -24.5t32.5 -26.5t32.5 -36.5t14.5 -50.5q0 -38 -17 -65t-41.5 -38t-49 -17t-41.5 -6h-17h-15.5t-34 4.5t-43 14t-34 31t-15.5 52.5q0 22 9.5 39.5t22 28t33 18t34.5 10.5t34.5 5t24 2h12.5q-2 13 -10.5 20t-8.5 12v31q-1 2 -12.5 -0.5t-30 3t-36 14
t-30 32t-12.5 56.5q0 34 14.5 58.5t34.5 36.5t40.5 18.5t35.5 7.5l14 1h139q0 -11 -32 -15.5t-32 -9.5q25 -12 33 -31.5t8 -58.5q0 -25 -11 -45t-24.5 -29.5t-24.5 -20.5t-11 -21zM667 449h-77v29q34 2 62 15q17 11 26 48h31v-320h-42v228zM578 372v-28h-90v-92h-28v92h-88
v28h88v92h28v-92h90zM144 451q11 -35 36 -56t50 -14q26 7 37 36.5t2 65.5q-11 38 -36 58t-51 12q-25 -6 -36 -36t-2 -66zM215 119q43 2 72.5 26t26.5 55q-2 32 -33.5 52t-75.5 18q-43 -3 -71.5 -27.5t-26.5 -55.5t34 -51.5t74 -16.5z" />
    <glyph glyph-name="H" unicode="H" horiz-adv-x="690" 
d="M275 354q0 -13 23.5 -31.5t47.5 -46t24 -63.5q0 -38 -17 -65t-42 -39t-49.5 -18t-41.5 -6h-17h-16t-35 5.5t-44 15t-35 31.5t-16 53t18.5 53t39 31.5t52 15t41 5.5h21.5q-1 13 -9.5 20.5t-8.5 12.5v30q-1 2 -13 -0.5t-30.5 3.5t-36.5 14.5t-31 32t-13 57.5t14.5 59.5
t35.5 37.5t42 19.5t35 8.5l15 1h141q0 -12 -31.5 -16.5t-31.5 -8.5q25 -13 32.5 -33t7.5 -59q0 -26 -11.5 -46t-24.5 -30t-24.5 -21.5t-11.5 -22.5zM645 492v-29h-98v-98h-30v98h-98v29h98v99h30v-99h98zM153 459q10 -37 35.5 -57.5t51.5 -13.5t37.5 38t1.5 68
q-12 36 -37 56.5t-52 12.5q-25 -6 -36 -37t-1 -67zM225 120q44 4 73.5 29t27.5 56q-3 32 -35 52t-76 18q-44 -3 -73.5 -27.5t-27.5 -57.5q2 -32 35 -52.5t76 -17.5z" />
    <glyph glyph-name="I" unicode="I" horiz-adv-x="630" 
d="M122 613h390q28 0 47.5 -19.5t19.5 -47.5v-390q0 -28 -19.5 -48t-47.5 -20h-390q-28 0 -48 20t-20 48v390q0 28 20 47.5t48 19.5zM496 556h-60q-8 0 -15.5 -7.5t-7.5 -16.5v-58q0 -8 7.5 -15.5t15.5 -7.5h60q10 0 17 7.5t7 15.5v58q0 9 -7 16.5t-17 7.5zM520 170v221h-47
q7 -16 7 -45q0 -66 -47.5 -112t-115.5 -46t-115.5 46t-47.5 112q0 26 8 45h-50v-221q0 -9 6.5 -15t15.5 -6h365q8 0 14.5 6t6.5 15zM317 454q-44 0 -74.5 -30t-30.5 -73q0 -41 31 -71t74 -30q44 0 75 30t31 71q0 43 -31 73t-75 30z" />
    <glyph glyph-name="J" unicode="J" horiz-adv-x="903" 
d="M809 428q0 -24 -17.5 -42t-41.5 -18q-25 0 -43 18t-18 42q0 25 18 42t43 17q24 0 41.5 -17t17.5 -42zM750 539q45 0 77.5 -32.5t32.5 -78.5t-32.5 -78.5t-77.5 -32.5l-107 -78q-4 -31 -27 -53.5t-55 -22.5q-30 0 -52.5 19t-30.5 48l-313 126q-19 -13 -42 -13
q-35 0 -59 24.5t-24 59.5q0 34 24.5 59t58.5 25q29 0 52 -19.5t29 -47.5l313 -126q21 13 44 13q1 0 3 -1t4 -1l70 99q0 46 32.5 78.5t79.5 32.5zM750 503q-31 0 -53 -22t-22 -53t22 -52.5t53 -21.5q30 0 52 21.5t22 52.5t-22 53t-52 22zM123 487q-26 0 -44 -17.5t-18 -42.5
t18 -43t44 -18h13l-25 11q-19 8 -26.5 26.5t0.5 35.5q8 19 26 27t36 1l31 -12q-18 32 -55 32zM561 308q-10 0 -14 -2l26 -9q19 -8 26.5 -26.5t-0.5 -37.5q-7 -19 -25.5 -26.5t-37.5 0.5q-4 1 -9 3t-11.5 5t-9.5 4q16 -32 55 -32q25 0 42.5 17.5t17.5 42.5q0 26 -17.5 43.5
t-42.5 17.5z" />
    <glyph glyph-name="K" unicode="K" horiz-adv-x="664" 
d="M563 536l44 -45q13 -13 0 -27l-269 -268q-5 -6 -13.5 -6t-12.5 6l-151 150q-5 4 -5 12t5 13l45 45q3 4 13 6q9 0 13 -6l92 -93l212 213q10 5 14 5q6 0 13 -5zM591 399l1 -1q19 -19 19 -46.5t-19 -47.5l-217 -217q-19 -19 -47 -19t-47 19l-218 217q-19 20 -19 47.5
t19 46.5l218 218q19 19 47 19t47 -19l97 -98l-146 -148l-69 70q-17 15 -37 15t-37 -15l-44 -44q-16 -16 -16 -37q0 -22 16 -37l150 -151q15 -15 37 -15q20 0 37 15z" />
    <glyph glyph-name="L" unicode="L" horiz-adv-x="771" 
d="M188 554l154 -171h-112v-154h121l81 -81h-258q-11 0 -19 7t-8 17v211h-113zM588 554q11 0 19 -7t8 -17v-211h113l-154 -171l-156 171h115v154h-124l-78 81h257z" />
    <glyph glyph-name="M" unicode="M" horiz-adv-x="716" 
d="M75 571h565q9 0 16 -7q8 -8 8 -18v-392q0 -13 -8 -18q-7 -7 -16 -7h-565q-9 0 -16 7q-9 4 -9 18v392q0 10 9 18q7 7 16 7zM98 200l162 146l-162 141v-287zM356 321l220 193h-438zM570 177l-152 138l-46 -43l-32 1l-43 42l-153 -138h426zM617 487l-163 -141l163 -146v287z
" />
    <glyph glyph-name="N" unicode="N" horiz-adv-x="787" 
d="M742 370q9 -21 9 -48q0 -26 -9 -47q-6 -24 -22 -40q-11 -14 -36 -27q-21 -9 -49 -9q-19 0 -37 6q-17 6 -33 17q-17 9 -30 24l-11 10q-11 11 -16 17l-27 -27q-18 -18 -27 -24q-20 -13 -33 -17q-19 -6 -40 -6q-27 0 -48 9q-21 11 -37 25q-14 19 -22 37v-1q-11 -25 -27 -40
q-14 -13 -38 -24q-23 -9 -49 -9q-16 0 -46 6q-16 4 -39 21q-17 11 -27 33q-10 17 -12 46h67q4 -24 19 -37q12 -13 37 -13q16 0 24 6q13 6 18 14q8 8 12 20q0 3 1 7.5t1.5 8.5t0.5 8q0 3 -3 24q-5 13 -12 20q-5 7 -18 13q-12 5 -24 5q-18 0 -30 -6q-15 -11 -20 -21h-63
l34 185h186v-56h-137l-13 -75v-2q16 16 30 20q15 6 36 6q24 0 44 -9q23 -13 31 -24q8 -8 16 -26q14 28 23 38q8 11 34 25q23 10 49 10q23 0 41 -7q10 -4 33 -17q20 -16 30 -26q10 -11 25 -30l27 30q13 14 29 26q15 11 34 17q17 7 39 7q27 0 48 -10q23 -11 35 -25
q16 -16 22 -38zM451 300q4 4 17 19q-7 9 -17 18q-11 11 -23 20q-6 5 -24 13q-11 6 -25 6q-24 0 -36 -17q-14 -15 -14 -40q0 -24 14 -39q12 -15 37 -15q16 0 26 5q3 2 11.5 6t12.5 7q14 10 21 17zM675 282q13 14 13 39q0 23 -13 39q-18 16 -40 16q-15 0 -25 -6
q-14 -5 -23 -13q-16 -14 -20 -20q-10 -6 -19 -18l19 -19q3 -3 20 -18q14 -9 24 -12q10 -5 26 -5q24 0 38 17z" />
    <glyph glyph-name="O" unicode="O" horiz-adv-x="567" 
d="M324 610q80 0 136 -56t56 -136t-56 -136t-136 -56q-41 0 -74 17l-129 -131q-17 -15 -36 -15t-34 15q-14 14 -14 34.5t14 35.5l120 121q-38 51 -38 115q0 80 56 136t135 56zM324 302q49 0 83 33.5t34 82.5q0 48 -34 82.5t-83 34.5q-48 0 -82 -34.5t-34 -82.5
q0 -49 33.5 -82.5t82.5 -33.5z" />
    <glyph glyph-name="P" unicode="P" horiz-adv-x="561" 
d="M436 237q-33 -29 -86 -36.5t-92 18.5q-3 1 -6 6.5t-6.5 8.5t-7.5 0q-30 -126 -58 -175h-39h2q-10 31 1 95q3 22 24 93t21 104q0 9 -6 36.5t-3 43.5q2 16 11.5 31t22.5 24t26.5 13t26.5 -3t20 -24q10 -23 4 -54t-17.5 -54.5t-13.5 -50.5t16 -42q19 -19 59 -14
q50 11 74.5 74t12.5 131t-55 93q-47 30 -94.5 24.5t-84.5 -30.5t-58.5 -67.5t-17.5 -86.5q2 -14 10 -30.5t14 -27.5t4.5 -25.5t-15.5 -28.5q-43 18 -61.5 50t-18.5 84q1 104 84.5 166.5t195.5 49.5q70 -8 123.5 -58t61.5 -115q6 -62 -13.5 -125.5t-60.5 -97.5z" />
    <glyph glyph-name="Q" unicode="Q" horiz-adv-x="541" 
d="M334 299l108 -197q13 -24 11 -30q-4 -7 -48 -7q-53 0 -57 1q-7 3 -13.5 13.5t-13.5 25t-9 17.5l-96 176l172 307q1 2 5 9.5l6 11t6 8.5t8.5 7.5t10.5 3.5h48q44 0 47 -6q1 -5 1.5 -8t-3 -9.5t-6 -10l-6.5 -9.5t-5 -8zM39 239q-7 0 -11 8q-1 4 0.5 7.5t5 8t4.5 6.5
q46 85 70 125q1 2 6 9.5t5 9.5q0 3 -6.5 14.5t-7.5 14.5q-19 28 -32 52q-13 18 -11 29q1 3 10 7h86q4 -1 7.5 -2.5t7 -5.5t5 -6t5 -8t3.5 -7q38 -62 51 -88l-76 -133q-20 -39 -34 -41h-88z" />
    <glyph glyph-name="R" unicode="R" horiz-adv-x="682" 
d="M225 477h-84q-6 0 -11 -5.5t-5 -12.5v-234q0 -8 5 -13t11 -5h338q16 0 16 18v18l72 66v-143q0 -12 -9 -21.5t-21 -9.5h-455q-11 0 -20 9.5t-9 21.5v352q0 12 9 21t20 9l245 -2v-1q-56 -16 -102 -68zM459 623l179 -164v-6l-179 -164v107q-70 5 -139.5 -28.5t-114.5 -91.5
l-4 1q10 111 79 172t179 63v111z" />
    <glyph glyph-name="S" unicode="S" horiz-adv-x="740" 
d="M634 394q-10 0 -19 5q-144 83 -335 76q-20 0 -39.5 -1.5t-35 -4l-30 -5t-25 -5l-18.5 -4.5l-12 -3l-4 -1q-16 -5 -31 4t-20 26q-4 16 4 32t24 21l9 2q10 3 26.5 6.5t37.5 7t50 7t59 4.5q214 6 380 -87q15 -9 19 -26t-4 -33q-10 -21 -36 -21zM560 152q-9 -15 -24 -15
q-9 0 -15 5q-48 30 -104 45.5t-102 16.5t-85.5 -3t-61 -9.5t-22.5 -6.5q-11 -3 -21 2.5t-14 18.5q-3 11 2.5 21t15.5 13q14 4 30 8t66.5 10t97 3.5t110 -19.5t117.5 -51q23 -17 10 -39zM611 273q-10 -17 -28 -17q-11 0 -17 5q-70 43 -147 62t-139 14.5t-94 -10t-51 -11.5
l-1 -1h-1q-13 -5 -25 1t-17 19q-10 32 20 44q70 23 154 27q182 7 335 -86q11 -7 14.5 -20.5t-3.5 -26.5z" />
    <glyph glyph-name="T" unicode="T" horiz-adv-x="945" 
d="M91 368v-139q-33 30 -33 69q0 42 33 70zM125 388l27 3q5 0 8 -2v-182h-8q-9 0 -27 4v177zM195 379q5 -2 6 -3q7 33 29 61v-230h-35v172zM264 470q18 13 35 17v-280h-35v263zM334 493q5 2 13 2q4 0 11 -1t10 -1v-286h-34v286zM387 488q18 -5 36 -14q1 4 3.5 7.5t6 7.5
t5.5 6v-288h-51v281zM456 512q46 43 116 43q69 0 119 -45t58 -111q21 8 40 8q42 0 69.5 -28.5t27.5 -70.5t-25.5 -69.5t-75.5 -29.5v-2h-329v305z" />
    <glyph glyph-name="U" unicode="U" horiz-adv-x="581" 
d="M425 335h93q13 -13 13 -28.5t-13 -26.5l-196 -175q-13 -11 -31 -11t-29 11l-199 175q-13 11 -13 26.5t13 28.5h95v238q0 16 13 27t30 11h181q17 0 30 -11t13 -27v-238z" />
    <glyph glyph-name="V" unicode="V" horiz-adv-x="630" 
d="M454 86q-19 3 -26 8q-259 111 -364 365q-18 44 -1 78t62 48q15 6 31 0q19 -7 54.5 -55t36.5 -68t-26 -41q-33 -23 -15 -64q35 -82 122 -119q33 -17 53 12q31 48 87 12q9 -7 49 -35q2 -2 10 -8t11 -9t8.5 -9.5t7 -11.5t1 -13t-3.5 -16q-10 -29 -39 -51.5t-58 -22.5z
M430 391q0 -20 -14 -22q-6 -1 -10 3.5t-5 12.5q-4 51 -56 61q-21 4 -16 17q5 10 20 10q28 1 54.5 -25.5t26.5 -56.5zM493 376q0 -2 0.5 -7.5t0.5 -9t-2.5 -7t-7.5 -3.5q-8 -1 -12 1.5t-4.5 6t-1 10t-0.5 9.5q-11 63 -38 91t-90 44q-2 0 -7 0.5t-7.5 1t-6 2t-5.5 3t-3 4.5
t0 7q3 12 13.5 13t19.5 -2q63 -8 107.5 -56t43.5 -108zM320 607q98 -3 170.5 -79.5t71.5 -173.5q0 -2 0.5 -8.5t0 -9t-1.5 -7t-4.5 -6t-8.5 -1.5t-8 2t-4 6t-1.5 7.5t-0.5 9.5v9q-13 103 -64 154.5t-154 67.5q-1 0 -5 0.5t-6 0.5t-5.5 0.5t-5 1.5t-3.5 2.5t-2.5 3.5t-0.5 5
q0 11 5 14t15.5 2t11.5 -1z" />
    <glyph glyph-name="W" unicode="W" horiz-adv-x="614" 
d="M562 370h-281v202l281 42v-244zM281 136v207h281v-249zM50 343h205v-203l-205 29v174zM255 569v-199h-205v170z" />
    <glyph glyph-name="X" unicode="X" horiz-adv-x="756" 
d="M545 369q81 -23 81 -89q0 -67 -86.5 -127t-213.5 -60q-69 0 -131.5 21t-104 62t-41.5 94q0 83 100 185q63 62 125 86.5t90 -3.5q25 -23 9 -77q-3 -8 1 -9.5t9 0.5l5 3q51 20 91 20t56 -22q16 -23 0 -66q-4 -13 10 -18zM664 570q34 -35 43.5 -81.5t-6.5 -89.5v-1
q-8 -23 -31 -15q-11 3 -16 12.5t-1 19.5q22 69 -26 122q-21 25 -53.5 35t-65.5 4q-9 -4 -18 2t-11 16q-6 24 20 30q44 11 88.5 -3.5t76.5 -50.5zM588 414q-19 7 -13 26q7 24 -9 40q-15 19 -39 14q-22 -2 -27 16q-4 22 18 27q48 9 81 -27q33 -40 16 -83q-2 -9 -10 -13t-17 0z
M599 510zM338 337q41 -11 58.5 -44.5t-0.5 -70.5q-15 -37 -57 -55t-83 -4q-39 12 -54 46.5t2 69.5t56 52t78 6zM298 217q8 13 4.5 25.5t-17.5 19.5q-12 4 -26 -1t-22 -16q-8 -12 -4.5 -25.5t14.5 -18.5q13 -6 28.5 -1.5t22.5 17.5zM334 262q3 13 -7 17q-12 2 -18 -7
q-7 -12 4 -18q14 -5 21 8zM326 132q83 8 137.5 51.5t48.5 98.5q-6 54 -67 86t-144 25q-82 -8 -136 -52.5t-49 -97.5q6 -54 67 -86.5t143 -24.5z" />
    <glyph glyph-name="Y" unicode="Y" horiz-adv-x="672" 
d="M505 195v0q21 143 40 399q0 20 12 30t31 8q33 -6 33 -35q0 -4 -5 -24q-69 -291 -82 -382q-16 7 -29 4zM480 623q-41 -56 -192 -324l4 -240q-20 4 -35 4l-37 -4l6 240q-141 247 -193 324q31 -7 74 0l76 -126l74 -122q146 245 148 248q37 -7 75 0v0zM468 104q0 15 9 25.5
t26 10.5t28 -9.5t11 -25.5q0 -18 -10 -27t-24 -9q-17 0 -28.5 9t-11.5 26z" />
    <glyph glyph-name="Z" unicode="Z" horiz-adv-x="565" 
d="M397 108q6 -9 -26 -14q-66 -9 -144 3q-32 5 -31 11l17 20v64q-29 -6 -49.5 -4t-33.5 9t-20.5 15t-10.5 14l-3 6q-7 18 -16.5 31t-15.5 17l-6 4q-9 6 -12 10t-1 6t5 3t6 1h4q16 -1 29 -9.5t19 -16.5l5 -9q34 -59 101 -29q4 31 22 47q-33 3 -58 11.5t-49.5 26t-37.5 51
t-13 81.5q0 54 36 93q-17 39 3 92q29 9 95 -36q42 12 87 12t86 -12q30 20 54 29t33 8l9 -1q21 -52 3 -92q36 -39 36 -93q0 -48 -13 -81.5t-37.5 -51t-49.5 -26t-58 -11.5q23 -21 23 -64q0 -28 -0.5 -61t-0.5 -34q0 -4 3 -9t7 -8zM84 289q2 2 -3 4q-5 3 -7 -1q0 -3 4 -4
q4 -2 6 1zM98 273q2 1 1.5 3.5t-2.5 3.5q-3 4 -7 2q-3 -3 1 -8q5 -5 7 -1zM111 253q5 3 0 8q-3 5 -8 3q-2 -4 0 -8q5 -5 8 -3zM131 233q2 1 1 4.5t-3 4.5q-6 6 -10 2q-3 -4 2 -9q7 -5 10 -2zM156 223q1 4 -6 6t-9 -2q0 -5 6 -7q7 -2 9 3zM185 221q0 5 -8 5t-8 -6q0 -5 8 -5
t8 6zM211 225q-2 5 -9 3q-6 -2 -6 -5q0 -6 8 -4q7 0 7 6z" />
    <glyph glyph-name="a" unicode="a" 
d="M278 421q-19 -41 -11 -86t32 -79q28 -43 51 -42q10 0 25.5 7t28.5 7t28.5 -6.5t26.5 -6.5q22 0 50 40q4 6 8 13t6.5 13l4.5 10.5t3 7.5l1 3q-3 0 -12 5.5t-21 22t-12 38.5q0 19 9.5 34.5t16 21t10.5 7.5q-22 32 -60 32q-15 2 -37 -6.5t-26 -8.5q-5 0 -23.5 7.5t-30.5 6.5
q-45 0 -68 -41zM415 518q-21 -25 -18 -51q29 -3 49 23q20 23 17 53q-28 -2 -48 -25zM399 0q-146 0 -249 103t-103 248t103.5 248.5t248.5 103.5t248 -103t103 -249q0 -145 -103 -248t-248 -103z" />
    <glyph glyph-name="b" unicode="b" horiz-adv-x="801" 
d="M398 702q143 2 246.5 -101.5t104.5 -249.5q1 -145 -102 -248.5t-249 -103.5t-249 103.5t-103 248.5t103 247t249 104zM243 363q-12 -21 -8 -74q1 -12 5 -19q4 -9 13 -9q6 0 74 22l31 10q11 3 13 18q0 15 -12 20l-22 8q-75 32 -80 32q-8 0 -14 -8zM407 138q1 3 1 77
q0 32 1 32q0 13 -13 18q-15 5 -23 -5l-15 -18q-53 -62 -54 -66q-2 -4 -1 -7q0 -5 4 -9q9 -11 41.5 -22.5t45.5 -9.5q10 2 13 10zM522 163q13 5 34.5 32t23.5 41q2 10 -6 15q-4 3 -73 25l-30 10q-13 5 -21 -6q-10 -12 -2 -23l12 -20q42 -69 46 -73q8 -5 16 -1zM487 332
q80 19 84 21q7 7 6 15v1q-1 14 -20 42t-31 34q-9 5 -17 0q-3 -2 -46 -62q-19 -25 -19 -26q-8 -9 -1 -22q9 -12 22 -9h-1zM410 395q-11 166 -12 174q-3 10 -12 11q-15 4 -57 -7.5t-53 -22.5q-7 -9 -4 -16q1 -2 57 -92l38 -59q13 -22 29 -18q15 4 14 30z" />
    <glyph glyph-name="c" unicode="c" 
d="M397 700q143 1 246 -102.5t105 -249.5q1 -145 -102 -248t-249 -103t-249 103t-103 248t103 247.5t249 104.5zM357 485l23 23v-194q0 -7 5 -12t12 -5t11.5 5t4.5 12v194l23 -23q4 -4 11 -4q8 0 12 4q11 12 0 23l-48 48q-15 14 -29 0l-48 -48q-11 -11 0 -23q12 -11 23 0z
M521 457h-82v-33h79v-242h-243v242h80v33h-82q-13 0 -21.5 -9t-8.5 -21v-248q0 -13 8.5 -21.5t21.5 -8.5h248q12 0 20.5 8.5t8.5 21.5v248q0 12 -8.5 21t-20.5 9z" />
    <glyph glyph-name="d" unicode="d" horiz-adv-x="798" 
d="M397 700q143 2 247 -102t105 -250q1 -145 -102.5 -248t-249.5 -103q-145 0 -248 102.5t-103 248.5q0 145 102.5 247.5t248.5 104.5zM397 474l-88 73l-126 -81l88 -70l-88 -70l126 -83l88 74l89 -74l126 83l-88 70l-127 -79l-126 79zM397 474l127 -78l88 70l-126 81z
M486 227l-88 74l-89 -74l-37 26v-29l126 -75l125 75v29z" />
    <glyph glyph-name="e" unicode="e" horiz-adv-x="797" 
d="M398 703q143 2 246.5 -101.5t104.5 -250.5q1 -145 -102 -248t-249 -103t-249 103t-103 248t103 247.5t249 104.5zM258 515q2 -9 6 -10q2 -1 5 -1q33 -4 33 -48v-219q0 -19 -9.5 -29t-16 -11t-15.5 -1q-11 0 -11 -10q0 -9 11 -9q10 0 101 0.5t115 0.5q26 0 37 -2.5
t12 -2.5q3 0 5 1.5t2.5 5.5t0.5 6.5v8.5v8q0 8 5.5 26t5.5 23q1 19 -13 19q-8 1 -9 -6q-6 -33 -20 -45q-23 -18 -120 -18q-38 0 -38 34v94q0 18 12 18h73q17 0 27 -6.5t12.5 -12t4.5 -15.5t10.5 -8.5t8.5 10.5q0 5 -1.5 20t-1.5 24q0 4 3 40q1 16 -10 16q-10 0 -10 -13
q-3 -31 -35 -31h-82q-11 0 -11 12v89q0 11 2.5 15t15.5 7t41 3q21 0 37 -1t27 -2.5t18.5 -5t11.5 -5t6 -6.5t2 -6v-7v-6q1 -10 8 -10q13 0 13 13q0 5 -1.5 16t-1.5 17t2 14t2 9q0 11 -10 11q-5 0 -19 -1.5t-43 -3.5t-70 -2q-20 0 -48.5 0.5t-49 1t-21.5 0.5q-9 0 -9 -9z" />
    <glyph glyph-name="f" unicode="f" horiz-adv-x="797" 
d="M398 700q143 2 246.5 -102t104.5 -250q1 -145 -102 -248t-249 -103t-248.5 102.5t-102.5 248.5q0 145 102.5 247.5t248.5 104.5zM620 373q0 19 -12 30t-32 11h-92l7 50q-1 14 -6.5 31.5t-10.5 28.5l-5 10q-11 21 -43 15t-32 -30l1 -49q-5 -11 -25.5 -44.5t-26.5 -38.5
q-2 -2 -8 -6l-15 6h-113q-10 0 -17.5 -7.5t-6.5 -18.5l13 -166q1 -9 8 -15.5t16 -6.5q104 0 108 2q15 6 15 23q1 0 13 -6.5t22 -6.5h149q28 0 45 20.5t10 43.5q20 20 12 45q20 21 12 46q14 14 14 33zM299 199q-17 0 -17 17.5t17 17.5t17 -17.5t-17 -17.5zM443 517
q5 -11 12 -29q6 -18 5 -30l-12 -66l7 -9h121q4 0 6 -1q1 0 5 -2q4 -5 2 -11t-9.5 -11.5t-16.5 -5.5v-14q12 0 14 -8t-5 -15l-4 -3l-17 -5v-15q14 -4 14 -11q0 -3 -3 -9q-9 -11 -23 -11v-14q14 0 14 -10q0 -9 -7 -14q-8 -7 -19 -7h-152q-4 2 -10.5 6t-8.5 5q-5 2 -13 2v120
q15 10 24 19q7 8 31 45q28 47 28 59l-1 46q10 4 18 -1z" />
    <glyph glyph-name="g" unicode="g" horiz-adv-x="795" 
d="M397 702q143 2 246 -101.5t105 -249.5q1 -145 -102 -248.5t-249 -103.5q-145 0 -248 103t-103 249q0 145 102.5 247t248.5 104zM320 352q0 8 12 17.5t24 24.5t12 37q0 26 -5 39t-22 21q0 3 21.5 6t21.5 11h-94q-4 0 -10 -0.5t-22.5 -5.5t-29 -12.5t-22.5 -24.5t-10 -39
q0 -23 8.5 -38.5t20.5 -21.5t24 -9t21 -3l8 1v-21q0 -3 6 -7.5t7 -14.5h-15t-27 -3.5t-35 -10t-26 -21t-12 -34.5q0 -32 24 -49.5t48 -18.5l24 -1h12.5t26.5 4t34 11.5t27 26t12 43.5q0 23 -16 41.5t-32 31t-16 20.5zM540 419h51v-153h29v215h-21q-6 -25 -18 -32
q-15 -7 -41 -10v-20zM531 368h-60v62h-19v-62h-60v-19h60v-62h19v62h60v19zM239 421q-6 24 1.5 44.5t24.5 24.5q17 5 34 -8.5t24 -38.5q6 -24 -1.5 -44.5t-24.5 -24.5q-17 -5 -34 9t-24 38zM287 197q-28 -2 -49.5 11.5t-23.5 34.5q-1 21 18 37.5t48 18.5t51 -11.5t23 -35.5
q2 -21 -18 -37.5t-49 -17.5z" />
    <glyph glyph-name="h" unicode="h" horiz-adv-x="795" 
d="M396 702q143 2 247 -101.5t105 -249.5q1 -145 -102.5 -248.5t-249.5 -103.5q-145 0 -248 103t-103 249q0 145 102.5 247t248.5 104zM354 348q0 9 12.5 19t25 25.5t12.5 38.5q0 27 -5.5 41t-22.5 22q0 3 22 6.5t22 11.5h-97q-4 0 -10.5 -1t-24 -6t-30.5 -13t-23.5 -25.5
t-10.5 -41.5q0 -37 21.5 -55.5t42.5 -18.5h22v-21q0 -4 6 -9t7 -14q-12 0 -23 -1t-37.5 -6.5t-43 -22.5t-16.5 -43q0 -34 25.5 -52t50.5 -19l25 -1h12.5t27.5 4t35.5 12.5t28 27t12.5 45.5q0 24 -16.5 43.5t-33 32t-16.5 21.5zM610 443h-68v69h-20v-69h-68v-20h68v-68h20v68
h68v20zM270 420q-7 25 0.5 46.5t25.5 26.5q19 5 36 -9t25 -40q7 -25 -1 -46.5t-26 -26.5t-35.5 9.5t-24.5 39.5zM320 186q-31 -2 -53 12t-24 36q-1 22 19 39.5t50 19.5q31 2 53.5 -12.5t23.5 -36.5t-19 -39t-50 -19z" />
    <glyph glyph-name="i" unicode="i" 
d="M398 702q143 2 246.5 -101.5t104.5 -249.5q1 -145 -102 -248.5t-249 -103.5t-249 103.5t-103 248.5t103 247t249 104zM540 542h-285q-20 0 -34.5 -14.5t-14.5 -34.5v-285q0 -20 14.5 -34.5t34.5 -14.5h285q20 0 34.5 14.5t14.5 34.5v285q0 20 -14.5 34.5t-34.5 14.5z
M485 500h44q7 0 12 -5t5 -12v-42q0 -7 -5 -12t-12 -5h-44q-7 0 -12 5t-5 12v42q0 7 5 12t12 5zM546 380v-162q0 -6 -4.5 -10.5t-10.5 -4.5h-267q-7 0 -11.5 4.5t-4.5 10.5v162h36q-5 -12 -5 -33q0 -48 34.5 -81.5t84.5 -33.5t84.5 33.5t34.5 81.5q0 21 -5 33h34zM398 426
q32 0 54.5 -22t22.5 -53t-22.5 -52.5t-54.5 -21.5t-54.5 21.5t-22.5 52.5t22.5 53t54.5 22z" />
    <glyph glyph-name="j" unicode="j" horiz-adv-x="795" 
d="M398 703q143 2 246.5 -101.5t104.5 -250.5q1 -145 -102 -248t-249 -103t-248.5 103t-102.5 248t102.5 247.5t248.5 104.5zM629 401q0 16 -11 27t-27 11t-27.5 -11t-11.5 -27t11.5 -27.5t27.5 -11.5t27 11.5t11 27.5zM591 472q-30 0 -51 -20.5t-21 -50.5l-45 -64
q-1 0 -2.5 0.5t-2.5 0.5q-15 0 -28 -8l-202 81q-4 18 -18.5 30.5t-33.5 12.5q-22 0 -38 -16t-16 -38t15.5 -38t38.5 -16q14 0 27 8l202 -81q5 -18 19.5 -30.5t33.5 -12.5q21 0 36 14t17 35l69 50q29 0 50 21t21 51q0 29 -21 50t-50 21zM591 449q19 0 33.5 -14.5t14.5 -33.5
q0 -20 -14 -34t-34 -14t-34 14t-14 34t14 34t34 14zM187 439q24 0 35 -21l-20 8q-12 4 -23.5 -1t-16.5 -17q-5 -11 0 -23t17 -17l16 -7h-8q-17 0 -28.5 11.5t-11.5 27.5t11.5 27.5t28.5 11.5zM469 323q17 0 28 -11.5t11 -27.5t-11 -27.5t-28 -11.5q-25 0 -35 21q10 -5 19 -8
q12 -5 24 0t17 17t0 24t-17 17l-17 6q3 1 9 1z" />
    <glyph glyph-name="k" unicode="k" horiz-adv-x="797" 
d="M398 703q143 2 247 -101.5t105 -250.5q1 -145 -102.5 -248t-249.5 -103t-248.5 103t-102.5 248t102.5 247.5t248.5 104.5zM617 461l-35 35q-4 4 -10 4q-5 0 -11 -4l-166 -167l-73 73q-3 5 -10 5q-8 -2 -10 -5l-35 -35q-5 -4 -5 -10t5 -10l118 -118q10 -11 21 0l211 211
q11 10 0 21zM604 389l-179 -179q-12 -12 -29 -12t-29 12l-118 118q-12 12 -12 29t12 29l35 35q14 12 29 12t29 -12l54 -55l115 116l-76 77q-16 15 -37.5 15t-36.5 -15l-171 -171q-15 -15 -15 -36.5t15 -37.5l171 -170q15 -15 36.5 -15t37.5 15l170 170q15 16 15 37.5
t-15 36.5z" />
    <glyph glyph-name="l" unicode="l" 
d="M271 485l-102 -112h75v-140q0 -7 5 -12t12 -5h171l-53 54h-81v103h75zM536 486h-171l53 -54h81v-103h-76l103 -112l102 112h-75v140q0 7 -5 12t-12 5zM398 0q-146 0 -248.5 103t-102.5 248t102.5 248t248.5 103t249 -103t103 -248t-103 -248t-249 -103z" />
    <glyph glyph-name="m" unicode="m" 
d="M397 701q143 1 246 -102t105 -249q1 -145 -102 -248t-249 -103q-145 0 -248 102.5t-103 248.5q0 145 102.5 247t248.5 104zM600 509h-406q-7 0 -12 -5q-6 -6 -6 -13v-282q0 -9 6 -13q5 -5 12 -5h406q7 0 12 5t5 13v282q0 6 -5 13q-5 5 -12 5zM327 347l-117 -105v207z
M554 468l-158 -139l-157 139h315zM550 225h-307l110 100l32 -30l22 -1l34 31zM584 449v-207l-117 105z" />
    <glyph glyph-name="n" unicode="n" horiz-adv-x="798" 
d="M399 703q143 2 246.5 -101.5t104.5 -250.5q1 -145 -102 -248t-249 -103t-249 103t-103 248t103 247.5t249 104.5zM647 363q-5 15 -15 25q-9 11 -23 17q-15 6 -32 6q-15 0 -26 -4q-13 -5 -23 -12q-11 -8 -19 -17q-6 -6 -18 -20q-8 10 -17 20q-6 7 -20 17q-11 8 -22 12
t-27 4q-17 0 -32 -6q-16 -9 -23 -17q-7 -7 -15 -25q-6 12 -11 17q-6 9 -21 16q-12 6 -29 6q-15 0 -24 -4q-7 -2 -20 -13v1l9 50h91v37h-124l-22 -123h41q5 9 14 14q7 4 20 4q9 0 16 -3t12 -9q5 -5 8 -13q2 -10 2 -16t-2 -16q-2 -6 -8 -14q-5 -6 -12 -9q-7 -4 -16 -4
q-16 0 -25 9q-9 7 -12 24h-45q2 -20 8 -30q7 -15 18 -22q11 -10 26 -14q20 -4 31 -4q17 0 32 6q14 6 26 16q10 10 18 26v1q4 -13 14 -24q12 -12 25 -17q14 -6 32 -6q15 0 26 4q14 5 22 11q6 4 18 16l18 18l18 -18q11 -11 20 -16q8 -6 22 -11q11 -4 25 -4q18 0 32 6
q15 6 24 18q10 10 15 26q6 15 6 32t-6 32zM453 316q-7 -6 -14 -11q-3 -3 -16 -9q-7 -3 -17 -3q-16 0 -25 10q-9 11 -9 26t9 26q9 12 24 12q9 0 17 -4q10 -4 16 -9q10 -8 15 -13l12 -12q-1 -1 -5 -6t-7 -7zM602 304q-8 -11 -25 -11q-9 0 -17 3q-6 2 -16 8q-10 8 -14 12
q-8 8 -12 13q4 6 12 12q4 5 14 13q5 5 15 9q7 4 17 4q15 0 26 -11q9 -11 9 -26q0 -16 -9 -26z" />
    <glyph glyph-name="o" unicode="o" horiz-adv-x="798" 
d="M399 700q143 1 246 -102.5t105 -249.5q1 -145 -102 -248t-249 -103t-249 103t-103 248t103 247.5t249 104.5zM429 535q-59 0 -100.5 -42t-41.5 -101q0 -49 28 -86l-90 -90q-11 -11 -11 -26.5t11 -25.5q11 -11 26 -11t26 11l97 97q26 -12 55 -12q59 0 101 42t42 101
t-42 101t-101 42zM429 305q-36 0 -61.5 25.5t-25.5 61.5t25.5 61.5t61.5 25.5t61.5 -25.5t25.5 -61.5t-25.5 -61.5t-61.5 -25.5z" />
    <glyph glyph-name="p" unicode="p" horiz-adv-x="795" 
d="M498 280q26 22 38.5 62t8.5 79q-5 41 -38.5 73t-78.5 37q-71 8 -124 -31.5t-54 -105.5q0 -64 51 -85q9 9 10 18t-3 16t-9 17.5t-6 19.5q-6 60 49 98.5t113 3.5q27 -16 34.5 -59.5t-8 -83t-47.5 -46.5q-25 -4 -37 8q-19 11 -1.5 59t8.5 69q-12 27 -38 14t-30 -40
q-2 -10 2 -27.5t4 -23.5q0 -21 -13.5 -66.5t-15.5 -58.5q-7 -36 -1 -60h-1h25q18 31 37 111q3 2 5 0t4 -5.5t3 -4.5q25 -16 58.5 -11t54.5 23zM398 701q146 0 248.5 -102.5t102.5 -248.5t-102.5 -249t-248.5 -103t-248.5 103t-102.5 249t102.5 248.5t248.5 102.5z" />
    <glyph glyph-name="q" unicode="q" horiz-adv-x="795" 
d="M397 703q143 2 246.5 -101.5t104.5 -250.5q1 -145 -102 -248t-249 -103q-145 0 -248 103t-103 248t102.5 247.5t248.5 104.5zM437 309l118 209q1 2 6 9.5t7 13t0 9.5q-2 3 -33 3q-8 0 -19.5 0.5t-14.5 0.5q-4 0 -7.5 -2t-6.5 -5.5t-4.5 -6t-4 -7.5l-3.5 -7l-122 -218
l68 -124q1 -2 6 -13t10 -18t10 -9q3 -1 40 -1q31 0 34 5q1 4 -7 21zM228 266h62q10 2 24 30l54 94q-6 12 -36 62q-11 20 -20 21h-61q-6 -2 -7 -5q-2 -9 8 -21l22 -37q1 -2 5.5 -10t4.5 -10q0 -1 -1 -3t-2 -3.5t-2.5 -4t-2.5 -3.5l-49 -88q-8 -13 -7 -16q2 -6 8 -6z" />
    <glyph glyph-name="r" unicode="r" horiz-adv-x="798" 
d="M398 700q143 2 246.5 -102t105.5 -250q1 -145 -102.5 -248t-249.5 -103t-248.5 102.5t-102.5 248.5q0 145 102.5 247.5t248.5 104.5zM285 433h57q29 34 70 47v1l-167 1q-8 0 -14 -6.5t-6 -14.5v-240q0 -8 6 -14.5t14 -6.5h310q8 0 14.5 6.5t6.5 14.5v98l-49 -45v-13
q0 -12 -12 -12h-230q-11 0 -11 12v160q0 12 11 12zM502 533v-76q-75 -1 -122 -42.5t-54 -117.5l3 -1q30 39 77.5 62.5t95.5 19.5v-73l122 112v4z" />
    <glyph glyph-name="s" unicode="s" horiz-adv-x="797" 
d="M398 702q143 2 247 -101.5t105 -249.5q1 -145 -102.5 -248.5t-249.5 -103.5q-145 0 -248 103t-103 249q0 145 102.5 247t248.5 104zM602 383q19 0 27 16q14 28 -12 44q-123 70 -284 65q-22 -1 -44 -3.5t-37.5 -5t-28 -5t-19.5 -4.5l-7 -2q-12 -4 -18.5 -15.5t-2.5 -24.5
t15 -19.5t23 -2.5l3 1q3 1 9 2.5t14 3l18.5 3.5t22.5 3.5t26.5 3t29.5 1.5q143 4 250 -57q7 -4 15 -4zM546 202q10 17 -7 29q-40 25 -88 38t-82.5 15t-73 -2.5t-49 -7.5t-22.5 -6q-8 -2 -12 -10t-2 -16q7 -20 26 -15q4 4 43 11t110 0t128 -43q5 -4 11 -4q12 0 18 11z
M584 293q5 9 2.5 19.5t-10.5 15.5q-114 68 -251 64q-82 -4 -115 -20q-22 -8 -15 -33q4 -10 13 -14.5t19 -0.5h1q16 5 37.5 9t69 8t105.5 -10.5t111 -46.5q4 -4 12 -4q15 0 21 13z" />
    <glyph glyph-name="t" unicode="t" 
d="M168 343q-20 -17 -20 -42q0 -24 20 -42v84zM189 355v-107q10 -2 16 -2h5v110q-2 1 -5 1q-6 0 -16 -2zM231 350v-104h21v139q-13 -18 -17 -37zM273 405v-159h21v169q-10 -3 -21 -10zM315 419v-173h21v173q-2 0 -6.5 0.5t-6.5 0.5q-5 0 -8 -1zM347 416v-170h31v174
q-8 -11 -9 -13q-9 5 -22 9zM389 430v-184h199v1q30 1 45.5 18t15.5 42t-17 42.5t-42 17.5q-11 0 -24 -5q-5 40 -35 67t-72 27t-70 -26zM399 0q-146 0 -249 103t-103 248t103.5 248.5t248.5 103.5t248 -103t103 -249q0 -145 -103 -248t-248 -103z" />
    <glyph glyph-name="u" unicode="u" horiz-adv-x="794" 
d="M396 703q143 2 246.5 -101.5t104.5 -250.5q1 -145 -102 -248t-249 -103t-249 103t-103 248t103 247.5t249 104.5zM539 340h-59v151q0 10 -8 17t-19 7h-114q-11 0 -19 -7t-8 -17v-151h-60q-8 -8 -8 -17.5t8 -16.5l125 -111q18 -16 38 0l124 111q8 7 8 16.5t-8 17.5z" />
    <glyph glyph-name="v" unicode="v" horiz-adv-x="799" 
d="M398 702q143 2 247 -101.5t105 -249.5q1 -145 -102.5 -248.5t-249.5 -103.5q-145 0 -248 103t-103 249q0 145 102.5 247t248.5 104zM493 153q21 0 42.5 16.5t28.5 37.5q2 6 2 12t-0.5 9.5t-5 8.5t-5.5 6.5t-9 6.5l-7 6l-36 26q-39 26 -63 -9q-14 -21 -39 -9
q-63 28 -89 87q-13 30 11 47q20 14 19 30q-1 14 -26.5 49.5t-39.5 40.5q-12 5 -23 0q-33 -11 -45.5 -35.5t0.5 -56.5q77 -186 266 -267q4 -2 19 -6zM476 376q0 22 -19.5 41.5t-39.5 18.5q-12 0 -15 -7q-4 -11 12 -13q37 -7 40 -44q1 -6 4.5 -9.5t7.5 -2.5q10 1 10 16z
M522 365q1 44 -31.5 79t-78.5 41q-7 2 -15 1t-10 -9q-1 -4 0 -6.5t3.5 -3.5t5 -1.5t6.5 -1.5t6 -1q47 -11 66.5 -31.5t27.5 -66.5v-7t0.5 -7.5t3.5 -4.5t9 -1q4 0 6 2.5t2 5t-0.5 7t-0.5 5.5zM395 534q-1 0 -8.5 0.5t-11 -1.5t-3.5 -10q0 -3 1 -5t3.5 -3t4.5 -1.5t6 -1
t5 -0.5q75 -11 112 -49t47 -113v-6t0.5 -6.5t1.5 -5.5t3 -4.5t6 -1.5t6 1t3 4t1 5v7v6q1 71 -52 127t-125 58z" />
    <glyph glyph-name="w" unicode="w" horiz-adv-x="795" 
d="M396 700q143 2 246.5 -102t104.5 -250q1 -145 -102 -248t-249 -103t-248.5 102.5t-102.5 248.5q0 145 102.5 247.5t248.5 104.5zM373 352h182v158l-182 -27v-131zM373 335v-134l182 -27v161h-182zM357 335h-133v-112l133 -19v131zM357 352v129l-133 -19v-110h133z" />
    <glyph glyph-name="x" unicode="x" 
d="M397 702q143 2 246.5 -101.5t104.5 -249.5q1 -145 -102 -248.5t-249 -103.5q-145 0 -248 103t-103 249q0 145 102.5 247t248.5 104zM512 357q-10 3 -7 12q11 31 0 46q-24 33 -102 1l-9 -2q-4 1 -2 7q11 37 -5 53q-20 19 -63.5 2t-87.5 -60q-69 -71 -69 -129
q0 -54 58.5 -88t134.5 -34q89 0 148.5 41.5t59.5 88.5q0 45 -56 62zM595 496q-47 53 -115 38q-17 -3 -14 -21q4 -18 21 -13q49 10 82 -27q33 -36 18 -85q-2 -7 1.5 -13.5t10.5 -8.5t13.5 1t8.5 10v1q22 67 -26 118zM542 387q6 -2 11.5 1t7.5 9q12 31 -12 58q-23 25 -56 18
q-16 -3 -12 -18q3 -14 18 -12q16 3 28 -9q11 -12 6 -28q-5 -14 9 -19zM368 334q-27 7 -54 -4.5t-39 -35.5q-12 -25 -1.5 -48.5t37.5 -32.5q29 -9 58 3.5t40 38.5q12 25 -0.5 48t-40.5 31zM340 251q-5 -9 -15.5 -12.5t-19.5 1.5q-8 4 -10.5 13t3.5 17q12 19 34 12
q9 -5 11.5 -13.5t-3.5 -17.5zM365 282q-6 -8 -14 -5q-8 4 -3 12q5 7 13 5q7 -4 4 -12zM360 192q57 5 95 35.5t34 68.5q-4 37 -46.5 59.5t-100.5 17.5q-57 -6 -94.5 -36.5t-33.5 -67.5q4 -38 46.5 -60.5t99.5 -16.5z" />
    <glyph glyph-name="y" unicode="y" 
d="M397 700q143 1 246 -102.5t105 -249.5q1 -145 -102 -248t-249 -103t-249 103t-103 248t103 247.5t249 104.5zM528 231q9 2 20 -3q6 42 18 97l26 116l15 61q0 1 1.5 7.5t1.5 9.5q0 21 -23 25q-31 3 -31 -27q-13 -179 -28 -286v0zM510 538v0q-28 -6 -54 0l-25 -42.5
l-43 -72.5l-38 -63l-36 59l-41 67.5t-30 51.5q-29 -5 -53 0q18 -27 138 -232l-4 -172q16 3 26 3l25 -3l-3 172q119 207 138 232zM501 166q0 -25 29 -25q24 0 24 26q0 25 -28 25q-25 0 -25 -26z" />
    <glyph glyph-name="z" unicode="z" horiz-adv-x="807" 
d="M403 699q148 0 252.5 -104.5t104.5 -252.5q0 -117 -68 -210t-176 -129q-12 -3 -18.5 2.5t-6.5 14.5q0 2 0.5 35.5t0.5 62.5q0 44 -24 66q34 4 59.5 12.5t51 27t39 53t13.5 83.5q0 56 -37 96q18 41 -3 95q-30 9 -99 -37q-42 12 -89 12t-90 -12q-30 20 -54.5 29.5
t-34.5 8.5l-9 -1q-21 -54 -3 -95q-37 -40 -37 -96q0 -49 13.5 -83.5t38.5 -53t51 -27t60 -12.5q-19 -15 -23 -48q-69 -30 -104 30q-19 34 -55 36h-3.5t-6.5 -1t-5.5 -3t1.5 -6.5t12 -10.5q23 -11 39 -53q1 -3 3 -6.5t10.5 -14t21.5 -15.5t35 -9.5t51 3.5v-66q0 -22 -24 -17
q-108 36 -176.5 129t-68.5 210q0 148 105 252.5t253 104.5zM181 186q1 3 -3 5q-5 3 -7 -1q0 -4 4 -5q4 -2 6 1zM195 170q2 1 1.5 3.5t-2.5 3.5q-3 4 -7 2q-3 -3 1 -8q5 -5 7 -1zM209 149q5 4 0 9q-3 5 -8 3q-4 -4 0 -9q5 -5 8 -3zM229 129q2 1 1 4.5t-3 4.5q-6 6 -10 2
q-3 -4 2 -9q7 -5 10 -2zM255 118q2 5 -6 7q-7 2 -9 -3q0 -6 6 -7q7 -2 9 3zM285 116q0 5 -8 5t-8 -6q0 -5 8 -5t8 6zM312 120q-2 6 -9 4q-8 -2 -6 -6q0 -6 8 -4q7 0 7 6z" />
    <glyph glyph-name="NULL" horiz-adv-x="0" 
 />
    <glyph glyph-name="CR" 
 />
  </font>
</defs>
</svg>
