<?xml version="1.0" encoding="utf-8"?>
<!-- Generator: Adobe Illustrator 16.0.0, SVG Export Plug-In . SVG Version: 6.00 Build 0)  -->
<!DOCTYPE svg PUBLIC "-//W3C//DTD SVG 1.1//EN" "http://www.w3.org/Graphics/SVG/1.1/DTD/svg11.dtd">
<svg version="1.1" id="Layer_1" xmlns="http://www.w3.org/2000/svg" xmlns:xlink="http://www.w3.org/1999/xlink" x="0px" y="0px"
	 width="40px" height="42px" viewBox="0 0 40 42" enable-background="new 0 0 40 42" xml:space="preserve">
<path fill="none" stroke="#0091ae" stroke-width="1.5" stroke-miterlimit="10" d="M35.492,39.87c0,0.625-0.505,1.13-1.131,1.13
	H5.162c-0.625,0-1.131-0.505-1.131-1.13V5.323c0-0.624,0.506-1.131,1.131-1.131h29.199c0.626,0,1.131,0.507,1.131,1.131V39.87z"/>
<polygon fill="none" stroke="#0091ae" stroke-width="1.5" stroke-miterlimit="10" points="32.302,36.35 32.302,36.35 7.667,36.35 
	7.667,36.35 7.667,36.35 7.667,36.35 32.302,36.35 "/>
<polygon fill="none" stroke="#0091ae" stroke-width="1.5" stroke-miterlimit="10" points="32.127,31.972 32.127,31.972 
	7.492,31.972 7.492,31.972 7.492,31.972 7.492,31.972 32.127,31.972 "/>
<polygon fill="none" stroke="#0091ae" stroke-width="1.5" stroke-miterlimit="10" points="32.127,27.593 32.127,27.593 
	7.492,27.593 7.492,27.593 7.492,27.593 7.492,27.593 32.127,27.593 "/>
<polygon fill="none" stroke="#0091ae" stroke-width="1.5" stroke-miterlimit="10" points="32.127,23.391 32.127,23.391 
	7.492,23.391 7.492,23.391 7.492,23.391 7.492,23.391 32.127,23.391 "/>
<text transform="matrix(1 0 0 1 15.1128 18.2886)" fill="#0091ae" font-family="'MyriadPro-Regular'" font-size="15.542">$</text>
</svg>
