<?xml version="1.0" encoding="utf-8"?>
<!-- Generator: Adobe Illustrator 16.0.0, SVG Export Plug-In . SVG Version: 6.00 Build 0)  -->
<!DOCTYPE svg PUBLIC "-//W3C//DTD SVG 1.1//EN" "http://www.w3.org/Graphics/SVG/1.1/DTD/svg11.dtd">
<svg version="1.1" id="Layer_2_xA0_Image_1_" xmlns="http://www.w3.org/2000/svg" xmlns:xlink="http://www.w3.org/1999/xlink"
	 x="0px" y="0px" width="19.458px" height="11.25px" viewBox="0 0 19.458 11.25" enable-background="new 0 0 19.458 11.25"
	 xml:space="preserve">
<path fill="#FFFFFF" d="M19.237,5.594c0-0.007-0.002-0.014-0.002-0.023c0-0.004,0-0.007-0.001-0.011
	c0-0.006-0.001-0.012-0.001-0.016c-0.003-0.008-0.003-0.015-0.004-0.02c0-0.001,0-0.001,0-0.002
	c-0.024-0.146-0.092-0.285-0.197-0.39c-0.605-0.715-1.321-1.352-2.053-1.934c-1.571-1.253-3.373-2.302-5.357-2.724
	C10.475,0.231,9.32,0.221,8.167,0.427C7.118,0.615,6.106,1.004,5.16,1.488c-1.482,0.758-2.834,1.8-4.014,2.971
	C0.928,4.676,0.711,4.896,0.512,5.132c-0.263,0.312-0.263,0.684,0,0.997c0.604,0.716,1.323,1.353,2.052,1.934
	c1.573,1.253,3.372,2.301,5.357,2.724c1.147,0.243,2.303,0.253,3.457,0.047c1.047-0.188,2.061-0.578,3.007-1.061
	c1.481-0.759,2.833-1.801,4.014-2.972c0.217-0.217,0.434-0.438,0.634-0.672c0.104-0.105,0.173-0.242,0.196-0.389
	c0-0.001,0-0.001,0-0.002c0.001-0.007,0.001-0.013,0.004-0.021c0.001-0.005,0.001-0.01,0.002-0.016c0-0.004,0-0.009,0-0.013
	c0.002-0.007,0.002-0.014,0.003-0.022c0-0.012,0-0.023,0-0.035S19.238,5.607,19.237,5.594z M9.776,9.271
	c-2.011,0-3.641-1.631-3.641-3.64c0-2.011,1.63-3.641,3.641-3.641c2.011,0,3.64,1.63,3.64,3.641
	C13.417,7.64,11.788,9.271,9.776,9.271z"/>
<circle fill="#FFFFFF" cx="9.776" cy="5.63" r="1.206"/>
</svg>
