<?xml version="1.0" encoding="utf-8"?>
<!-- Generator: Adobe Illustrator 16.0.0, SVG Export Plug-In . SVG Version: 6.00 Build 0)  -->
<!DOCTYPE svg PUBLIC "-//W3C//DTD SVG 1.1//EN" "http://www.w3.org/Graphics/SVG/1.1/DTD/svg11.dtd">
<svg version="1.1" id="Layer_1" xmlns="http://www.w3.org/2000/svg" xmlns:xlink="http://www.w3.org/1999/xlink" x="0px" y="0px"
	 width="16px" height="18px" viewBox="0 -2 16 18" enable-background="new 0 -2 16 18" xml:space="preserve">
<g>
	<path display="none" fill="#FFFFFF" d="M0.1,0.095c5.27,0,10.541,0,15.81,0c0,5.27,0,10.54,0,15.811c-5.27,0-10.54,0-15.81,0.001
		C0.1,10.636,0.1,5.365,0.1,0.095z M5.643,12.598c-0.357,0.643-0.772,1.387-1.223,2.194c2.448,1.11,4.729,1.151,7.141-0.056
		c-0.488-0.848-0.938-1.629-1.232-2.139C8.666,12.598,7.283,12.598,5.643,12.598z M12.547,5.669c0,1.605,0,3.099,0,4.661
		c0.658,0.361,1.369,0.753,2.207,1.211c1.086-2.43,1.188-4.673-0.088-7.064C13.842,4.941,13.133,5.339,12.547,5.669z M4.475,1.274
		c0.471,0.841,0.89,1.59,1.219,2.177c1.62,0,3.066,0,4.647,0c0.33-0.618,0.732-1.369,1.166-2.182
		C9.082,0.136,6.852,0.109,4.475,1.274z M3.396,10.33c0-1.624,0-3.057,0-4.673C2.842,5.34,2.097,4.913,1.217,4.409
		c-1.08,2.456-1.197,4.747,0.035,7.173C2.099,11.087,2.842,10.652,3.396,10.33z M1.191,12.223c1.029,0.899,1.815,1.586,2.709,2.366
		c0.609-1.079,1.005-1.778,1.417-2.508c-0.526-0.501-0.988-0.942-1.46-1.392C3.082,11.137,2.378,11.54,1.191,12.223z M5.367,3.929
		C4.863,3.077,4.454,2.39,3.818,1.314c-0.889,0.924-1.6,1.664-2.444,2.541c1.095,0.622,1.827,1.038,2.558,1.453
		C4.446,4.814,4.872,4.405,5.367,3.929z M10.604,12.025c0.574,0.938,1.015,1.654,1.654,2.697c0.877-0.976,1.549-1.722,2.354-2.617
		c-1.079-0.614-1.811-1.03-2.278-1.297C11.654,11.285,11.166,11.63,10.604,12.025z M12.146,1.292
		c-0.67,1.199-1.082,1.939-1.416,2.537c0.496,0.605,0.871,1.063,1.266,1.543c0.854-0.492,1.59-0.915,2.674-1.538
		C13.779,2.938,13.078,2.229,12.146,1.292z"/>
	<path fill="#FFFFFF" d="M5.643,12.598c1.64,0,3.022,0,4.685,0c0.295,0.512,0.744,1.293,1.232,2.141
		c-2.412,1.205-4.692,1.166-7.141,0.055C4.871,13.982,5.286,13.239,5.643,12.598z"/>
	<path fill="#FFFFFF" d="M12.547,5.669c0.586-0.33,1.295-0.729,2.119-1.192c1.275,2.391,1.174,4.634,0.088,7.064
		c-0.838-0.458-1.549-0.85-2.207-1.211C12.547,8.768,12.547,7.275,12.547,5.669z"/>
	<path fill="#FFFFFF" d="M4.475,1.274c2.377-1.166,4.607-1.139,7.033-0.004c-0.434,0.813-0.836,1.564-1.166,2.182
		c-1.582,0-3.028,0-4.647,0C5.365,2.865,4.946,2.116,4.475,1.274z"/>
	<path fill="#FFFFFF" d="M3.396,10.33c-0.554,0.322-1.297,0.757-2.145,1.252C0.02,9.154,0.137,6.864,1.217,4.409
		c0.88,0.504,1.625,0.931,2.18,1.249C3.396,7.273,3.396,8.706,3.396,10.33z"/>
	<path fill="#FFFFFF" d="M1.191,12.223c1.187-0.683,1.891-1.086,2.667-1.531c0.472,0.447,0.934,0.89,1.46,1.391
		C4.905,12.811,4.509,13.51,3.9,14.589C3.006,13.809,2.22,13.122,1.191,12.223z"/>
	<path fill="#FFFFFF" d="M5.367,3.929C4.872,4.405,4.446,4.814,3.932,5.308c-0.731-0.414-1.463-0.83-2.558-1.453
		c0.844-0.877,1.555-1.617,2.444-2.541C4.454,2.39,4.863,3.077,5.367,3.929z"/>
	<path fill="#FFFFFF" d="M10.604,12.025c0.563-0.396,1.051-0.74,1.729-1.217c0.469,0.267,1.199,0.683,2.278,1.297
		c-0.805,0.896-1.477,1.643-2.354,2.617C11.617,13.68,11.178,12.963,10.604,12.025z"/>
	<path fill="#FFFFFF" d="M12.146,1.292c0.932,0.937,1.633,1.645,2.522,2.542c-1.084,0.623-1.819,1.046-2.674,1.538
		c-0.396-0.479-0.771-0.938-1.267-1.543C11.064,3.231,11.477,2.492,12.146,1.292z"/>
</g>
</svg>
