<?xml version="1.0" encoding="utf-8"?>
<!-- Generator: Adobe Illustrator 16.0.0, SVG Export Plug-In . SVG Version: 6.00 Build 0)  -->
<!DOCTYPE svg PUBLIC "-//W3C//DTD SVG 1.1//EN" "http://www.w3.org/Graphics/SVG/1.1/DTD/svg11.dtd">
<svg version="1.1" id="Layer_1" xmlns="http://www.w3.org/2000/svg" xmlns:xlink="http://www.w3.org/1999/xlink" x="0px" y="0px"
	 width="48px" height="48px" viewBox="-8 -8 48 48" enable-background="new -8 -8 48 48" xml:space="preserve">
<g>
	<path display="none" fill="#FFFFFF" d="M-3.121-3.121c12.748,0,25.494,0,38.241,0c0.002,12.748,0.002,25.494,0.002,38.241
		c-12.746,0-25.493,0-38.241,0.002C-3.121,22.373-3.121,9.627-3.121-3.121z M10.286,27.121c-0.864,1.55-1.868,3.351-2.959,5.308
		c5.924,2.688,11.442,2.782,17.275-0.133c-1.183-2.049-2.271-3.94-2.985-5.175C17.597,27.121,14.251,27.121,10.286,27.121z
		 M26.988,10.362c0,3.884,0,7.495,0,11.272c1.591,0.876,3.314,1.82,5.336,2.934c2.624-5.878,2.873-11.305-0.211-17.088
		C30.119,8.6,28.404,9.564,26.988,10.362z M7.462-0.269c1.14,2.035,2.154,3.846,2.948,5.267c3.918,0,7.413,0,11.245,0
		c0.797-1.494,1.771-3.312,2.819-5.277C18.606-3.021,13.21-3.087,7.462-0.269z M4.853,21.632c0-3.927,0-7.39,0-11.299
		C3.512,9.564,1.71,8.532-0.419,7.313c-2.613,5.939-2.896,11.481,0.084,17.35C1.715,23.466,3.512,22.416,4.853,21.632z
		 M-0.483,26.215c2.489,2.174,4.391,3.832,6.552,5.719c1.474-2.608,2.43-4.299,3.428-6.064c-1.272-1.212-2.391-2.274-3.53-3.364
		C4.091,23.585,2.389,24.563-0.483,26.215z M9.619,6.153c-1.22-2.06-2.208-3.725-3.749-6.323c-2.148,2.235-3.868,4.023-5.91,6.145
		c2.646,1.504,4.419,2.51,6.187,3.513C7.393,8.292,8.421,7.305,9.619,6.153z M22.285,25.737c1.391,2.266,2.451,3.998,4.001,6.523
		c2.12-2.356,3.746-4.164,5.696-6.33c-2.616-1.487-4.385-2.495-5.52-3.14C24.829,23.945,23.646,24.779,22.285,25.737z M26.02-0.224
		c-1.619,2.9-2.619,4.689-3.429,6.138c1.203,1.464,2.112,2.571,3.064,3.731c2.065-1.188,3.846-2.212,6.466-3.719
		C29.968,3.755,28.269,2.042,26.02-0.224z"/>
	<path fill="#FFFFFF" d="M10.286,27.121c3.964,0,7.311,0,11.331,0c0.714,1.234,1.803,3.126,2.985,5.175
		c-5.833,2.915-11.352,2.82-17.275,0.133C8.418,30.472,9.422,28.671,10.286,27.121z"/>
	<path fill="#FFFFFF" d="M26.988,10.362c1.416-0.797,3.131-1.76,5.125-2.883c3.084,5.783,2.835,11.211,0.211,17.088
		c-2.021-1.112-3.745-2.059-5.336-2.933C26.988,17.857,26.988,14.247,26.988,10.362z"/>
	<path fill="#FFFFFF" d="M7.462-0.269c5.748-2.818,11.144-2.752,17.012-0.01c-1.049,1.964-2.022,3.781-2.819,5.277
		c-3.832,0-7.328,0-11.245,0C9.615,3.577,8.602,1.767,7.462-0.269z"/>
	<path fill="#FFFFFF" d="M4.853,21.632c-1.341,0.783-3.138,1.834-5.188,3.031c-2.98-5.868-2.697-11.411-0.084-17.35
		c2.129,1.218,3.931,2.251,5.272,3.019C4.853,14.242,4.853,17.705,4.853,21.632z"/>
	<path fill="#FFFFFF" d="M-0.483,26.215c2.872-1.651,4.574-2.63,6.45-3.71c1.141,1.09,2.258,2.152,3.53,3.364
		c-0.998,1.766-1.954,3.458-3.428,6.064C3.908,30.047,2.007,28.389-0.483,26.215z"/>
	<path fill="#FFFFFF" d="M9.619,6.153C8.421,7.305,7.393,8.293,6.148,9.489C4.38,8.485,2.607,7.479-0.039,5.975
		c2.042-2.122,3.761-3.91,5.91-6.145C7.411,2.428,8.399,4.093,9.619,6.153z"/>
	<path fill="#FFFFFF" d="M22.285,25.737c1.36-0.958,2.544-1.795,4.178-2.945c1.135,0.646,2.901,1.651,5.52,3.142
		c-1.95,2.165-3.577,3.971-5.696,6.327C24.736,29.735,23.676,28.003,22.285,25.737z"/>
	<path fill="#FFFFFF" d="M26.02-0.224c2.249,2.267,3.948,3.979,6.102,6.148c-2.62,1.507-4.4,2.531-6.466,3.719
		c-0.952-1.159-1.861-2.266-3.064-3.73C23.4,4.465,24.4,2.676,26.02-0.224z"/>
</g>
</svg>
