<?xml version="1.0" encoding="utf-8"?>
<!-- Generator: Adobe Illustrator 16.0.0, SVG Export Plug-In . SVG Version: 6.00 Build 0)  -->
<!DOCTYPE svg PUBLIC "-//W3C//DTD SVG 1.1//EN" "http://www.w3.org/Graphics/SVG/1.1/DTD/svg11.dtd">
<svg version="1.1" id="Layer_1" xmlns="http://www.w3.org/2000/svg" xmlns:xlink="http://www.w3.org/1999/xlink" x="0px" y="0px"
	 width="16px" height="18px" viewBox="0 0 16 18" enable-background="new 0 0 16 18" xml:space="preserve">
<g>
	<path fill="#425B76" d="M5.643,12.598c1.64,0,3.022,0,4.685,0c0.295,0.512,0.744,1.293,1.232,2.142
		c-2.412,1.204-4.692,1.166-7.142,0.055C4.871,13.982,5.286,13.239,5.643,12.598z"/>
	<path fill="#425B76" d="M12.547,5.669c0.586-0.33,1.295-0.729,2.119-1.192c1.275,2.391,1.174,4.634,0.088,7.064
		c-0.838-0.458-1.549-0.85-2.207-1.211C12.547,8.768,12.547,7.275,12.547,5.669z"/>
	<path fill="#425B76" d="M4.475,1.274c2.377-1.166,4.607-1.139,7.033-0.004c-0.434,0.813-0.836,1.564-1.166,2.182
		c-1.582,0-3.028,0-4.647,0C5.365,2.865,4.946,2.116,4.475,1.274z"/>
	<path fill="#425B76" d="M3.396,10.33c-0.554,0.322-1.297,0.757-2.145,1.252C0.02,9.154,0.137,6.864,1.217,4.409
		c0.88,0.504,1.625,0.931,2.18,1.249C3.396,7.273,3.396,8.706,3.396,10.33z"/>
	<path fill="#425B76" d="M1.191,12.223c1.187-0.683,1.891-1.086,2.667-1.531c0.472,0.447,0.934,0.891,1.46,1.392
		C4.905,12.811,4.509,13.51,3.9,14.589C3.006,13.809,2.22,13.122,1.191,12.223z"/>
	<path fill="#425B76" d="M5.367,3.929C4.872,4.405,4.446,4.814,3.932,5.308c-0.731-0.414-1.463-0.83-2.558-1.453
		c0.844-0.877,1.555-1.617,2.444-2.541C4.454,2.39,4.863,3.077,5.367,3.929z"/>
	<path fill="#425B76" d="M10.604,12.025c0.563-0.396,1.051-0.74,1.729-1.217c0.469,0.267,1.199,0.683,2.278,1.297
		c-0.805,0.896-1.478,1.643-2.354,2.617C11.617,13.68,11.178,12.963,10.604,12.025z"/>
	<path fill="#425B76" d="M12.146,1.292c0.932,0.937,1.633,1.645,2.521,2.542c-1.084,0.623-1.818,1.046-2.674,1.538
		c-0.396-0.479-0.771-0.938-1.268-1.543C11.064,3.231,11.477,2.492,12.146,1.292z"/>
</g>
</svg>
