<?xml version="1.0" encoding="utf-8"?>
<!-- Generator: Adobe Illustrator 16.0.0, SVG Export Plug-In . SVG Version: 6.00 Build 0)  -->
<!DOCTYPE svg PUBLIC "-//W3C//DTD SVG 1.1//EN" "http://www.w3.org/Graphics/SVG/1.1/DTD/svg11.dtd">
<svg version="1.1" id="Layer_1" xmlns="http://www.w3.org/2000/svg" xmlns:xlink="http://www.w3.org/1999/xlink" x="0px" y="0px"
	 width="48px" height="48px" viewBox="-8 -8 48 48" enable-background="new -8 -8 48 48" xml:space="preserve">
<g>
	<path fill="#0091ae" d="M10.286,27.121c3.964,0,7.311,0,11.331,0c0.714,1.234,1.803,3.126,2.985,5.175
		c-5.833,2.915-11.352,2.82-17.275,0.133C8.418,30.472,9.422,28.671,10.286,27.121z"/>
	<path fill="#0091ae" d="M26.988,10.362c1.416-0.797,3.131-1.76,5.125-2.883c3.084,5.783,2.835,11.211,0.211,17.088
		c-2.021-1.112-3.745-2.059-5.336-2.933C26.988,17.857,26.988,14.247,26.988,10.362z"/>
	<path fill="#0091ae" d="M7.462-0.269c5.748-2.818,11.144-2.752,17.012-0.01c-1.049,1.964-2.022,3.781-2.819,5.277
		c-3.832,0-7.328,0-11.245,0C9.615,3.577,8.602,1.767,7.462-0.269z"/>
	<path fill="#0091ae" d="M4.853,21.632c-1.341,0.783-3.138,1.834-5.188,3.031c-2.98-5.868-2.697-11.411-0.084-17.35
		c2.129,1.218,3.931,2.251,5.272,3.019C4.853,14.242,4.853,17.705,4.853,21.632z"/>
	<path fill="#0091ae" d="M-0.483,26.215c2.872-1.651,4.574-2.63,6.45-3.71c1.141,1.09,2.258,2.152,3.53,3.364
		c-0.998,1.766-1.954,3.458-3.428,6.064C3.908,30.047,2.007,28.389-0.483,26.215z"/>
	<path fill="#0091ae" d="M9.619,6.153C8.421,7.305,7.393,8.293,6.148,9.489C4.38,8.485,2.607,7.479-0.039,5.975
		c2.042-2.122,3.761-3.91,5.91-6.145C7.411,2.428,8.399,4.093,9.619,6.153z"/>
	<path fill="#0091ae" d="M22.285,25.737c1.36-0.958,2.544-1.795,4.178-2.945c1.135,0.646,2.901,1.651,5.52,3.142
		c-1.95,2.165-3.577,3.971-5.696,6.327C24.736,29.735,23.676,28.003,22.285,25.737z"/>
	<path fill="#0091ae" d="M26.02-0.224c2.249,2.267,3.948,3.979,6.102,6.148c-2.62,1.507-4.4,2.531-6.466,3.719
		c-0.952-1.159-1.861-2.266-3.064-3.73C23.4,4.465,24.4,2.676,26.02-0.224z"/>
</g>
</svg>
